<svg width="30" height="30" xmlns="http://www.w3.org/2000/svg">
    <g fill="none" fill-rule="evenodd">
        <path fill="#1E6BB3" d="M0 30h30V0H0z"/>
        <path d="M5.824 20.905v-4.71h4.987l.535.697.553-.697H30v4.385s-.473.32-1.02.325H18.955l-.603-.743v.743h-1.977v-1.268s-.27.177-.854.177h-.673v1.09h-2.993l-.534-.712-.543.713H5.824M0 12.645l1.125-2.622h1.944l.639 1.469v-1.469h2.417l.38 1.062.369-1.062h10.852v.534s.57-.534 1.508-.534l3.522.013.627 1.449v-1.462h2.023l.557.833v-.833h2.042v4.71h-2.042l-.534-.835v.835h-2.972l-.3-.742h-.798l-.294.742h-2.016c-.807 0-1.323-.523-1.323-.523v.523h-3.04l-.602-.742v.742H2.78l-.299-.742h-.796l-.296.742H0v-2.088" fill="#FFF"/>
        <path d="M1.523 10.604.006 14.13h.987l.28-.707H2.9l.279.707h1.009l-1.515-3.527h-1.15zm.56.82.497 1.235h-.994l.498-1.234zM4.292 14.13v-3.527l1.404.005.816 2.274.797-2.279H8.7v3.527h-.882v-2.599l-.935 2.599h-.773l-.937-2.599v2.599h-.882M9.304 14.13v-3.527h2.877v.79h-1.986v.602h1.94v.743h-1.94v.626h1.986v.766H9.304M12.691 10.604v3.527h.882v-1.253h.371l1.057 1.252h1.078l-1.16-1.299c.476-.04.967-.449.967-1.083 0-.742-.582-1.144-1.233-1.144h-1.962zm.882.789h1.008c.242 0 .418.189.418.371 0 .234-.228.371-.405.371h-1.021v-.742zM16.246 14.13h.9v-3.527h-.9zM19.28 14.13h-.194c-.94 0-1.51-.74-1.51-1.749 0-1.033.564-1.778 1.751-1.778h.975v.835h-1.01c-.483 0-.823.377-.823.952 0 .683.39.97.951.97h.232l-.371.77M21.2 10.604l-1.518 3.527h.988l.28-.707h1.627l.278.707h1.01l-1.516-3.527H21.2zm.56.82.496 1.235h-.993l.497-1.234zM23.968 14.13v-3.527h1.12l1.432 2.216v-2.216h.881v3.527h-1.084l-1.468-2.274v2.274h-.881M6.427 20.302v-3.527h2.877v.789H7.318v.603h1.94v.742h-1.94v.627h1.986v.766H6.427M20.524 20.302v-3.527h2.877v.789h-1.986v.603h1.93v.742h-1.93v.627h1.986v.766h-2.877M9.415 20.302l1.401-1.742-1.434-1.785h1.111l.854 1.104.857-1.104h1.067l-1.415 1.763 1.403 1.764h-1.11l-.83-1.087-.809 1.087H9.415M13.364 16.776v3.526h.905V19.19h.928c.786 0 1.38-.417 1.38-1.227 0-.671-.466-1.186-1.265-1.186h-1.948zm.905.797h.977c.254 0 .435.155.435.406 0 .236-.18.406-.437.406h-.975v-.812zM16.96 16.775v3.527h.882v-1.253h.372l1.056 1.253h1.078l-1.16-1.3c.476-.04.967-.448.967-1.083 0-.742-.582-1.144-1.233-1.144H16.96zm.882.789h1.008c.242 0 .418.189.418.371 0 .234-.228.371-.405.371h-1.02v-.742zM23.81 20.302v-.766h1.764c.261 0 .374-.141.374-.296 0-.148-.112-.298-.374-.298h-.797c-.693 0-1.08-.422-1.08-1.056 0-.566.354-1.111 1.384-1.111h1.717l-.371.794h-1.485c-.284 0-.371.149-.371.29 0 .147.108.308.324.308h.836c.772 0 1.108.438 1.108 1.012 0 .617-.374 1.123-1.15 1.123h-1.88M27.046 20.302v-.766h1.69c.26 0 .374-.141.374-.296 0-.148-.113-.298-.375-.298h-.722c-.693 0-1.08-.422-1.08-1.056 0-.566.354-1.111 1.384-1.111H30l-.371.794h-1.451c-.284 0-.371.149-.371.29 0 .147.108.308.325.308h.76c.773 0 1.108.438 1.108 1.012 0 .617-.374 1.123-1.15 1.123h-1.804" fill="#1E6BB3"/>
    </g>
</svg>
