<svg width="39" height="30" xmlns="http://www.w3.org/2000/svg">
    <g fill-rule="nonzero" fill="none">
        <path fill="#FF5F00" d="M14.246 5.566h10.5v18.869h-10.5z"/>
        <path d="M14.913 15a11.98 11.98 0 0 1 4.583-9.434 12 12 0 1 0 0 18.87A11.98 11.98 0 0 1 14.913 15z" fill="#EB001B"/>
        <path d="M38.912 15a12 12 0 0 1-19.416 9.435 12.002 12.002 0 0 0 0-18.87 12 12 0 0 1 19.416 9.436zM37.767 22.97v-.828h.156v-.17h-.397v.17h.156v.829h.085zm.77 0v-1h-.121l-.14.689-.14-.688h-.122v1h.086v-.754l.131.65h.09l.13-.652v.756h.086z" fill="#F79E1B"/>
    </g>
</svg>
