<svg id="images" xmlns="http://www.w3.org/2000/svg" viewBox="0 0 600 450"><defs><style>.cls-1{fill:#060808;opacity:0.16;}.cls-1,.cls-10,.cls-2,.cls-3,.cls-4,.cls-5,.cls-6,.cls-7,.cls-8,.cls-9{fill-rule:evenodd;}.cls-2,.cls-26{fill:#ececeb;}.cls-3{fill:#000001;opacity:0.1;}.cls-4{fill:#a3a3a3;}.cls-16,.cls-5{fill:#dddddc;}.cls-20,.cls-6{fill:#738d57;}.cls-7{fill:#50a9aa;}.cls-8{fill:#e5c828;}.cls-9{fill:#734d60;}.cls-10{fill:#474747;}.cls-11{fill:#8f8f8f;}.cls-12{fill:#c4c4c4;}.cls-13{fill:#cececd;}.cls-14{fill:#c3987b;}.cls-15{fill:#8b6651;}.cls-17{fill:#54b08b;}.cls-18{fill:#35785d;}.cls-19{fill:#dfbda5;}.cls-21{fill:#99c26d;}.cls-22{fill:#5a753d;}.cls-23{fill:#446125;}.cls-24{fill:#3f8f6f;}.cls-25{fill:#72c9a6;}.cls-27{fill:#e8cab6;}.cls-28{fill:#fff;}</style></defs><title>3D_profile_cover</title><g id="INFJ"><polygon class="cls-1" points="414.21 449.25 524.21 442.86 381.79 430.8 116.21 438.18 414.21 449.25"/><polygon class="cls-2" points="76.51 388.51 399.35 421.12 447.72 39.15 135.85 21.79 76.51 388.51"/><polygon class="cls-3" points="76.51 388.51 393.96 412.24 444.63 38.95 135.85 21.79 76.51 388.51"/><polygon class="cls-2" points="390.97 407.06 443.43 24.08 135.85 21.79 76.51 388.51 390.97 407.06"/><polygon class="cls-4" points="76.51 388.51 99.15 409.35 414.21 441.67 406.93 425.61 397.15 417.33 76.51 388.51"/><polygon class="cls-5" points="397.15 417.33 414.21 441.67 463.57 59.09 447.72 39.15 397.15 417.33"/><polygon class="cls-3" points="76.51 388.51 383.29 398.18 434.35 24.08 135.85 21.79 76.51 388.51"/><polygon class="cls-3" points="406.63 430.8 406.13 430.69 89.08 400.08 86.98 398.18 405.63 429.5 456.1 49.62 457.19 51.01 406.63 430.8"/><polygon class="cls-2" points="377.01 373.15 224.12 380.63 77.41 383.12 135.85 21.79 427.47 1.65 377.01 373.15"/><polygon class="cls-6" points="414.51 97.09 120.39 117.04 134.86 28.27 141.74 23.09 422.78 5.04 426.48 8.13 414.51 97.09"/><polygon class="cls-7" points="232.09 21.59 134.86 28.27 135.85 21.79 233.19 15.11 233.59 18.4 232.09 21.59"/><polygon class="cls-8" points="329.53 14.81 232.09 21.59 233.19 15.11 330.53 8.33 331.43 10.82 329.53 14.81"/><polygon class="cls-9" points="426.48 8.13 329.53 14.81 330.53 8.33 427.47 1.65 426.48 8.13"/><polygon class="cls-9" points="150.81 386.21 76.51 388.51 77.41 383.12 151.21 380.63 152.21 383.42 150.81 386.21"/><polygon class="cls-7" points="223.82 383.92 150.81 386.21 151.21 380.63 224.32 378.24 225.31 380.33 223.82 383.92"/><polygon class="cls-8" points="297.12 381.63 223.82 383.92 224.32 378.24 297.72 375.74 297.82 378.53 297.12 381.63"/><polygon class="cls-6" points="376.11 379.13 297.12 381.63 297.72 375.74 377.01 373.15 376.11 379.13"/><path class="cls-7" d="M195.19,352.21a2.86,2.86,0,0,0-2.49,2.09,1.51,1.51,0,0,0,1.7,1.89,2.86,2.86,0,0,0,2.49-2.09A1.54,1.54,0,0,0,195.19,352.21Z"/><path class="cls-9" d="M188.41,357.89a1.52,1.52,0,0,0,1.7,1.9,2.86,2.86,0,0,0,2.49-2.1,1.51,1.51,0,0,0-1.69-1.89A2.78,2.78,0,0,0,188.41,357.89Z"/><path class="cls-8" d="M199.88,357.49a2.75,2.75,0,0,1-2.49,2.09,1.58,1.58,0,0,1-1.7-1.89,2.78,2.78,0,0,1,2.5-2.09A1.51,1.51,0,0,1,199.88,357.49Z"/><path class="cls-6" d="M193.1,363.28a1.6,1.6,0,0,1-1.7-1.9,2.78,2.78,0,0,1,2.5-2.09,1.58,1.58,0,0,1,1.69,1.89A2.77,2.77,0,0,1,193.1,363.28Z"/><path class="cls-7" d="M191.1,350.91a1.07,1.07,0,0,0-1,.8.65.65,0,0,0,.7.79,1.07,1.07,0,0,0,1-.79C191.9,351.21,191.6,350.81,191.1,350.91Z"/><path class="cls-7" d="M194.1,349.61a1.08,1.08,0,0,0-1,.8.66.66,0,0,0,.7.8,1.08,1.08,0,0,0,1-.8C194.9,349.91,194.6,349.61,194.1,349.61Z"/><path class="cls-7" d="M197.39,349.51a1.08,1.08,0,0,0-1,.8.66.66,0,0,0,.7.8,1.08,1.08,0,0,0,1-.8A.71.71,0,0,0,197.39,349.51Z"/><path class="cls-7" d="M199.88,350.51a1.08,1.08,0,0,0-1,.8.66.66,0,0,0,.7.8,1.08,1.08,0,0,0,1-.8C200.68,350.81,200.38,350.51,199.88,350.51Z"/><path class="cls-6" d="M188.71,363.28a1.07,1.07,0,0,0-1,.79.66.66,0,0,0,.7.8,1.08,1.08,0,0,0,1-.8A.65.65,0,0,0,188.71,363.28Z"/><path class="cls-6" d="M191.3,364.37a1.07,1.07,0,0,0-1,.8.66.66,0,0,0,.7.8,1.07,1.07,0,0,0,1-.8A.67.67,0,0,0,191.3,364.37Z"/><path class="cls-6" d="M194.5,364.27a1.08,1.08,0,0,0-1,.8.66.66,0,0,0,.7.8,1.06,1.06,0,0,0,1-.8A.62.62,0,0,0,194.5,364.27Z"/><path class="cls-6" d="M197.49,363a1.08,1.08,0,0,0-1,.79.66.66,0,0,0,.7.8,1.08,1.08,0,0,0,1-.8C198.29,363.28,198,363,197.49,363Z"/><path class="cls-9" d="M187,361.38a1.08,1.08,0,0,0-1,.8.66.66,0,0,0,.7.8,1.06,1.06,0,0,0,1-.8A.65.65,0,0,0,187,361.38Z"/><path class="cls-9" d="M187,359.58a.66.66,0,0,0-.7-.79,1.08,1.08,0,0,0-1,.79.66.66,0,0,0,.7.8A1.08,1.08,0,0,0,187,359.58Z"/><path class="cls-9" d="M186.62,357.29a1.05,1.05,0,0,0,1-.8.65.65,0,0,0-.69-.79,1.07,1.07,0,0,0-1,.79A.77.77,0,0,0,186.62,357.29Z"/><path class="cls-9" d="M188.61,352.9a1.08,1.08,0,0,0-1,.8.66.66,0,0,0,.7.8,1.08,1.08,0,0,0,1-.8A.66.66,0,0,0,188.61,352.9Z"/><path class="cls-8" d="M200,360.88a1.08,1.08,0,0,0-1,.8.66.66,0,0,0,.7.8,1.08,1.08,0,0,0,1-.8A.66.66,0,0,0,200,360.88Z"/><path class="cls-8" d="M201.68,358.19a1.08,1.08,0,0,0-1,.8.66.66,0,0,0,.7.8,1.08,1.08,0,0,0,1-.8A.63.63,0,0,0,201.68,358.19Z"/><path class="cls-8" d="M201.28,355.9a.66.66,0,0,0,.7.79,1.08,1.08,0,0,0,1-.79.66.66,0,0,0-.69-.8A1.08,1.08,0,0,0,201.28,355.9Z"/><path class="cls-8" d="M201.28,354a1.08,1.08,0,0,0,1-.8.66.66,0,0,0-.7-.8,1.08,1.08,0,0,0-1,.8C200.48,353.7,200.78,354.1,201.28,354Z"/><path class="cls-10" d="M220.63,356.29a2.52,2.52,0,0,1-1.7.6,1.64,1.64,0,0,1-1-.2c-.1-.1-.2-.1-.1-.2v-.1l.1-.1a.1.1,0,0,1,.1-.1c.1,0,.1,0,.2.1a.75.75,0,0,0,.5.1,1.25,1.25,0,0,0,.9-.39,1.93,1.93,0,0,0,.5-.9.9.9,0,0,0-.2-.9,1.33,1.33,0,0,0-1-.3.75.75,0,0,0-.5.1c-.1.1-.2.1-.2.3a3.93,3.93,0,0,1-.2.6l-.2.8-.4,2.09a2.75,2.75,0,0,0-.09.8c0,.2.09.3.29.4a3.54,3.54,0,0,0,.6.1.1.1,0,0,1,.1.1v.1c0,.1-.1.1-.2.2h-1.39a3.81,3.81,0,0,0-.9.09,3.55,3.55,0,0,0-.7.1h0c-.1,0-.2,0-.1-.1v-.09c0-.1.2-.2.4-.2a.55.55,0,0,0,.5-.3,4.65,4.65,0,0,0,.3-.9l.5-2.69a2,2,0,0,0,.1-.7c0-.3-.1-.5-.5-.5-.2,0-.3-.1-.3-.2v-.2c0-.1.1-.1.2-.1h1.29a5.13,5.13,0,0,0,1-.1,4.59,4.59,0,0,1,1-.1,2.49,2.49,0,0,1,1.59.4,1.09,1.09,0,0,1,.4,1.2A2.34,2.34,0,0,1,220.63,356.29Z"/><path class="cls-10" d="M224.12,359a2.3,2.3,0,0,1-1.4.4,1.62,1.62,0,0,1-1.4-.5,1.69,1.69,0,0,1-.3-1.4,2.55,2.55,0,0,1,.9-1.59,2.34,2.34,0,0,1,1.7-.7,1.56,1.56,0,0,1,1.19.4,1.23,1.23,0,0,1,.3,1.19.35.35,0,0,1-.1.2h-.29l-2.3.1c-.1,0-.2,0-.2.1v.2a.9.9,0,0,0,.2.9.91.91,0,0,0,.8.4,1.43,1.43,0,0,0,1-.4l.4-.3h.19v.1c.1.3-.19.5-.69.9Zm-.2-3.09c-.1-.2-.3-.2-.5-.2a1.08,1.08,0,0,0-.7.3,1,1,0,0,0-.4.69c0,.1,0,.1.1.1H224c.1,0,.1-.1.1-.2C224.12,356.19,224.12,356,223.92,355.9Z"/><path class="cls-10" d="M229.2,355.9c-.3.19-.4.39-.5.39s-.2,0-.2-.1a.36.36,0,0,1-.09-.19c-.1-.1-.1-.1-.3-.1s-.5.29-.7,1l-.2,1c0,.2-.1.4,0,.5a1.07,1.07,0,0,0,.5.3.22.22,0,0,1,.2.2v.1c0,.1-.1.1-.3.2h-1.4a2.77,2.77,0,0,0-.9.1h-.1c-.1,0-.2,0-.1-.1v-.1c0-.1.1-.1.2-.2a2.19,2.19,0,0,0,.5-.3.85.85,0,0,0,.2-.6l.2-1.2a1,1,0,0,1,.1-.3c0-.2-.1-.4-.3-.4s-.3,0-.3-.09v-.2c0-.1.1-.1.3-.2h.1a2.24,2.24,0,0,0,1-.3c.2-.1.3-.2.4-.2h.2v.2l-.1.5.3-.3a1.2,1.2,0,0,1,.89-.4c.2,0,.4,0,.5.2a.76.76,0,0,1,.2.4A1.24,1.24,0,0,1,229.2,355.9Z"/><path class="cls-10" d="M232,358.59a2,2,0,0,1-1.3.4,1.7,1.7,0,0,1-.7-.1l-.3-.1h-.2c-.1,0-.1,0-.2.1l-.1.1h-.3l-.1-.1a.35.35,0,0,0,.1-.2.37.37,0,0,0,.1-.3l.1-.5c0-.2.1-.2.2-.3h.1c.1,0,.1.1.1.3a.86.86,0,0,0,.3.6,1.08,1.08,0,0,0,.8.2.8.8,0,0,0,.9-.6c0-.2,0-.3-.1-.4a1.54,1.54,0,0,0-.7-.3,1.88,1.88,0,0,1-1-.4.78.78,0,0,1-.2-.8,1.46,1.46,0,0,1,.6-.89,2.14,2.14,0,0,1,1.2-.4h.9a.36.36,0,0,0,.29-.1.35.35,0,0,0,.2-.1h.1v.1a.31.31,0,0,1-.1.2c-.1.1-.1.2-.1.4v.5h0a.21.21,0,0,1-.2.19h-.1c-.09,0-.09-.09-.09-.19a.76.76,0,0,0-.2-.5,1.42,1.42,0,0,0-.6-.2c-.4,0-.8.2-.8.5s0,.3.2.39a2.19,2.19,0,0,0,.8.3,4.32,4.32,0,0,0,.69.2.81.81,0,0,1,.4.9A1.46,1.46,0,0,1,232,358.59Z"/><path class="cls-10" d="M237.18,358.19a4,4,0,0,1-1.79.7,1.72,1.72,0,0,1-1.5-.5,1.6,1.6,0,0,1-.4-1.5,2.73,2.73,0,0,1,1-1.59,4,4,0,0,1,1.89-.7,2.07,2.07,0,0,1,1.5.5,1.9,1.9,0,0,1,.4,1.49,2.61,2.61,0,0,1-1.1,1.6Zm-.3-2.59a1,1,0,0,0-.8-.5,1.8,1.8,0,0,0-.89.4,2.5,2.5,0,0,0-.4,2.39,1,1,0,0,0,.8.5,1.77,1.77,0,0,0,.89-.4,2.51,2.51,0,0,0,.4-2.39Z"/><path class="cls-10" d="M243.86,358.29c0,.1-.1.1-.2.2h-.89a2.51,2.51,0,0,0-1,.1h-.3c-.1,0-.2,0-.1-.1v-.2a.44.44,0,0,1,.3-.1.72.72,0,0,0,.4-.7l.2-1c.2-.79-.1-1.19-.6-1.19a.91.91,0,0,0-.7.3,1.24,1.24,0,0,0-.4.89l-.2,1.3a.42.42,0,0,0,.3.6c.2,0,.2.1.2.2v.1c0,.1-.1.1-.2.2h-1.09a1.7,1.7,0,0,0-.7.1h-.3c-.1,0-.1,0-.1-.1v-.1c0-.1.1-.1.1-.2a.31.31,0,0,0,.2-.1c.2,0,.3-.2.4-.3a4.33,4.33,0,0,0,.1-.5l.2-1a.82.82,0,0,0,0-.69c0-.1-.2-.1-.4-.1a.22.22,0,0,1-.2-.2v-.1c0-.1.1-.1.2-.2s.4-.1.59-.1l.6-.3a.37.37,0,0,1,.3-.1h.1c.1,0,.1.1.1.2l-.1.5c.2-.2.4-.3.5-.4a2.28,2.28,0,0,1,1.1-.3,1.05,1.05,0,0,1,1,.4,1.61,1.61,0,0,1,.1,1.39l-.2,1.1c-.1.4-.1.6,0,.7a1,1,0,0,0,.39.1c.1,0,.1,0,.1.1Z"/><path class="cls-10" d="M248.05,358.09a1.61,1.61,0,0,1-1,.4c-.2,0-.4,0-.5-.2s-.1-.2-.1-.4a1.38,1.38,0,0,0-.4.3,1.93,1.93,0,0,1-1,.3,1.17,1.17,0,0,1-.7-.2.84.84,0,0,1-.2-.7,2.56,2.56,0,0,1,.8-1.1,6.91,6.91,0,0,1,1.9-.69v-.2c.1-.6-.1-.8-.7-.8-.3,0-.6.1-.6.3l-.1.2c0,.1-.2.2-.3.2s-.1,0-.2-.1l-.1-.2V355q0-.3.9-.6a4.25,4.25,0,0,1,1.1-.2,2.92,2.92,0,0,1,.89.2,1,1,0,0,1,.3,1.1c0,.2-.1.3-.1.4l-.2.89c-.1.4,0,.7.2.6a.37.37,0,0,0,.3-.1c.1,0,.1-.1.2-.1h.1v.2a1.16,1.16,0,0,1-.5.7Zm-1.29-1.8a3,3,0,0,0-1,.4,1.33,1.33,0,0,0-.5.6c-.1.3.1.5.5.5a1.42,1.42,0,0,0,.6-.2.55.55,0,0,0,.3-.5Z"/><path class="cls-10" d="M250.94,358c0,.2-.09.2-.19.2h-.9c-.5,0-1,.1-1.3.1-.1,0-.1,0-.1-.1v-.1a.22.22,0,0,1,.2-.2c.4-.1.6-.2.7-.6l.1-.5L250,354a4.4,4.4,0,0,0,.1-.9.52.52,0,0,0-.4-.2c-.1,0-.2-.1-.1-.2v-.1c0-.1.1-.1.2-.1h.2a1.36,1.36,0,0,0,1.09-.39l.2-.2a.31.31,0,0,1,.2-.1h.2a.1.1,0,0,1,.1.1v.1c-.1.2-.1.29-.2.39s-.1.6-.3,1.2l-.59,2.89a2,2,0,0,0-.1.7.36.36,0,0,0,.39.4v.4Z"/><path class="cls-10" d="M253.74,357.89c0,.1-.1.1-.3.2h-2.2v-.2a.22.22,0,0,1,.2-.2c.2-.1.4-.1.5-.3s.1-.2.2-.5l.2-1a2.81,2.81,0,0,0,.1-.8c0-.2-.1-.2-.3-.2h0c-.2,0-.2,0-.1-.1v-.1c0-.1,0-.1.1-.2h.3a.6.6,0,0,0,.4-.1c.2-.1.4-.1.5-.2l.3-.2h.3c.1,0,.1.1.1.2v.1c-.1.4-.2.9-.4,1.5l-.2,1c-.1.4-.1.6,0,.7s.2.2.4.2c-.1,0-.1,0-.1.2Zm-.1-4.79a.73.73,0,0,1-.6.2c-.3,0-.4-.1-.4-.4a.66.66,0,0,1,.4-.5.76.76,0,0,1,.6-.19c.3,0,.4.09.4.39A.66.66,0,0,1,253.64,353.1Z"/><path class="cls-10" d="M256.83,357.69a1.5,1.5,0,0,1-1.1.4,1.22,1.22,0,0,1-.9-.3.76.76,0,0,1-.2-.5,1.76,1.76,0,0,1,.1-.6l.4-2.09c0-.1,0-.1-.1-.1h-.3c-.19,0-.19,0-.19-.2v-.1c0-.1.09-.2.29-.2a2.21,2.21,0,0,0,1.3-1c.1-.1.2-.2.3-.2h.2v.3l-.2.9h1.2c.1,0,.1,0,.1.1v.2a.22.22,0,0,1-.2.2h-1.1l-.4,1.89q-.15.75,0,.9a.52.52,0,0,0,.4.2.37.37,0,0,0,.3-.1c.1,0,.2-.1.3-.1h.1v.1Z"/><path class="cls-10" d="M259.72,357.69c0,.1-.1.1-.3.2h-2.19v-.2a.22.22,0,0,1,.2-.2c.2-.1.4-.1.5-.3s.1-.2.2-.5l.2-1a3.11,3.11,0,0,0,.09-.8c0-.2-.09-.2-.29-.2h0c-.2,0-.2,0-.1-.1v-.1c0-.1,0-.1.1-.2h.29a.6.6,0,0,0,.4-.1c.2-.1.4-.1.5-.2l.3-.2h.3c.1,0,.1.1.1.2v.1c-.1.4-.2.9-.4,1.5l-.2,1c-.1.4-.1.6,0,.7s.2.2.4.2c-.1,0-.1,0-.1.2Zm-.1-4.79a.73.73,0,0,1-.6.2c-.3,0-.4-.1-.4-.4a.63.63,0,0,1,.4-.49.73.73,0,0,1,.6-.2c.3,0,.4.1.4.39A1.76,1.76,0,0,1,259.62,352.9Z"/><path class="cls-10" d="M263.41,357.39a2.29,2.29,0,0,1-1.39.4,1.5,1.5,0,0,1-1.7-1.89,2.6,2.6,0,0,1,.9-1.6,2.32,2.32,0,0,1,1.69-.7,1.59,1.59,0,0,1,1.2.4,1.25,1.25,0,0,1,.3,1.2.35.35,0,0,1-.1.2H264l-2.29.1c-.1,0-.2,0-.2.1v.2a1.05,1.05,0,0,0,1,1.29,1.43,1.43,0,0,0,1-.4l.4-.3h.2v.1c.1.4-.2.6-.7.9Zm-.1-3.09c-.1-.2-.3-.2-.5-.2a1.08,1.08,0,0,0-.7.3,1,1,0,0,0-.39.7c0,.1,0,.1.1.1h1.59c.1,0,.1-.1.1-.2A1.45,1.45,0,0,0,263.31,354.3Z"/><path class="cls-10" d="M267.6,357.29a2,2,0,0,1-1.3.4,1.63,1.63,0,0,1-.69-.1l-.3-.1h-.2c-.1,0-.1,0-.2.1l-.1.1h-.3l-.1-.1a.35.35,0,0,0,.1-.2.37.37,0,0,0,.1-.3l.1-.5c0-.2.1-.2.2-.3h.1c.1,0,.1.1.1.3a.86.86,0,0,0,.3.6,1.05,1.05,0,0,0,.79.2.8.8,0,0,0,.9-.6c0-.2,0-.3-.1-.4a1.54,1.54,0,0,0-.7-.3,1.77,1.77,0,0,1-1-.39.78.78,0,0,1-.2-.8,1.46,1.46,0,0,1,.6-.9,2.08,2.08,0,0,1,1.19-.4h.9a.37.37,0,0,0,.3-.1.35.35,0,0,0,.2-.1h.1v.1a.31.31,0,0,1-.1.2c-.1.1-.1.2-.1.4v.5h0a.22.22,0,0,1-.2.2h-.1c-.1,0-.1-.1-.1-.2a.76.76,0,0,0-.2-.5,1.42,1.42,0,0,0-.6-.2c-.4,0-.8.2-.8.5s0,.3.2.4a2.19,2.19,0,0,0,.8.3,4.08,4.08,0,0,0,.7.2.8.8,0,0,1,.4.89A1.64,1.64,0,0,1,267.6,357.29Z"/><path class="cls-9" d="M209.16,359.58c0,.21-.1.21-.3.21h-1.4l-.8.09h-.79c-.2,0-.2,0-.2-.09v-.11c0-.1.1-.19.3-.19.39,0,.69-.1.79-.3a2.19,2.19,0,0,0,.3-.9l.3-1.8c.1-.59.2-1,.2-1.09a.22.22,0,0,0-.2-.2.37.37,0,0,0-.3.1l-.2.1a.35.35,0,0,0-.2.1c-.1,0-.1,0-.1-.1v-.1c0-.1.1-.2.3-.2a6.74,6.74,0,0,0,1.9-1c.1-.1.2-.2.3-.2h.1a.1.1,0,0,1,.1.1v.1a9.05,9.05,0,0,0-.5,1.7l-.5,2.69q-.15.75,0,.9c.1.19.3.19.7.19.1-.19.2-.19.2,0Z"/><path class="cls-9" d="M213.05,359.09a2.84,2.84,0,0,1-1.7.7,1.78,1.78,0,0,1-1.5-.6,2.08,2.08,0,0,1-.29-1.6,4.51,4.51,0,0,1,1.69-2.59,8,8,0,0,1,2.29-1.4,4.18,4.18,0,0,1,.9-.3c.1,0,.1,0,.1.1h0v.1c0,.1-.1.1-.2.1l-.4.1a6.24,6.24,0,0,0-1.39.7,3.8,3.8,0,0,0-1.2,1.3,3,3,0,0,1,1-.2,1.43,1.43,0,0,1,1.3.5,1.57,1.57,0,0,1,.29,1.39,2.4,2.4,0,0,1-.89,1.7Zm-.5-2.3a.94.94,0,0,0-.8-.6c-.5,0-.8.4-1,1.1a2.2,2.2,0,0,0,.1,1.4c.2.4.4.6.8.6s.9-.5,1-1.2A1.5,1.5,0,0,0,212.55,356.79Z"/><path class="cls-2" d="M195.39,96.08l.38-2.41,1.79-.12a2.86,2.86,0,0,0,2.7-2.35c.19-1.19-.48-2.13-2-2L195,89.4l-1.08,6.78,1.49-.1Zm2.17-3.79L196,92.4l.29-1.83,1.58-.11c.59,0,1,.28.89.85a1.22,1.22,0,0,1-1.18,1ZM211.14,95,210,92.52a2.61,2.61,0,0,0,1.86-2.12c.2-1.26-.55-2.12-2-2l-3.28.22-1.08,6.79,1.49-.11.38-2.41,1.1-.07,1,2.31,1.71-.12Zm-2-3.5-1.56.11.29-1.83,1.56-.11c.6,0,1,.28.91.85a1.24,1.24,0,0,1-1.2,1Zm13.2,2.73.2-1.27-3.46.24.24-1.53,3.39-.24.2-1.27-3.39.23.23-1.43,3.47-.24.2-1.27-5,.34-1.09,6.78,5-.34Zm13.78-1,1.08-6.78-2.1.14-2.35,4.22-1-4L229.6,87l-1.09,6.79,1.49-.11.76-4.75L232,93.56l.65,0,2.73-4.88-.76,4.75,1.5-.11Zm8-.55,1.09-6.78-1.49.1-1.09,6.78,1.49-.1Zm9.56-.54a3.58,3.58,0,0,0,3.61-3.06l.65-4.06-1.52.1-.64,4a1.94,1.94,0,0,1-1.89,1.71c-1.09.07-1.55-.54-1.4-1.48l.65-4-1.51.1L251,89.57c-.26,1.67.58,2.76,2.71,2.61Zm17.27-1.31L272,84.09l-2.1.14-2.35,4.21-1.05-4-2.09.15-1.08,6.78,1.49-.1.76-4.75,1.21,4.61.65,0,2.73-4.89L269.44,91l1.5-.1Zm15.74-1.09.38-2.41,1.79-.12a2.86,2.86,0,0,0,2.7-2.35c.19-1.19-.48-2.13-2-2l-3.28.22-1.08,6.78,1.49-.1ZM288.85,86l-1.58.11.29-1.83,1.58-.11c.59,0,1,.28.89.84a1.23,1.23,0,0,1-1.18,1Zm13.58,2.7-1.16-2.47a2.62,2.62,0,0,0,1.86-2.12c.2-1.26-.55-2.12-2-2l-3.28.22-1.08,6.79,1.49-.11.38-2.41,1.1-.07,1,2.31,1.71-.12Zm-2-3.5-1.56.11.29-1.83,1.56-.11c.6,0,1,.28.91.85a1.24,1.24,0,0,1-1.2,1Zm11.54,3a4.58,4.58,0,0,0,4.22-3.76c.33-2.05-1-3.4-3.1-3.26a4.58,4.58,0,0,0-4.21,3.76c-.33,2,1,3.4,3.09,3.26Zm.2-1.28c-1.29.09-2-.82-1.76-2.08a2.74,2.74,0,0,1,2.48-2.38c1.29-.09,2,.81,1.77,2.08a2.77,2.77,0,0,1-2.49,2.38Zm11.05.38.45-2.81,3.39-.23.2-1.27-3.39.23.23-1.43,3.47-.24.2-1.27-4.95.34-1.09,6.78,1.49-.1Zm11.13-.77,1.09-6.78-1.49.1-1.09,6.79,1.49-.11Zm10.87-.75.2-1.27-3,.21.89-5.52-1.49.11-1.09,6.78,4.45-.31Zm11-.76.21-1.27L353,84l.24-1.54,3.39-.23.2-1.27-3.39.23.23-1.43,3.47-.24.2-1.27-4.95.34-1.09,6.78Z"/><polygon class="cls-11" points="287.24 194.63 289.99 195.07 300.14 191.49 301.81 187.63 287.24 194.63"/><polygon class="cls-12" points="294.96 181.87 287.09 182.38 287.21 194.79 289.99 195.07 301.81 187.63 294.96 181.87"/><polygon class="cls-13" points="172.44 324 221.44 324.53 277.99 315.94 223.13 316.81 172.44 324"/><polygon class="cls-11" points="242.04 201.37 218.89 207.05 223.15 210.21 242.92 205.89 242.04 201.37"/><polygon class="cls-12" points="235.65 194.5 223.64 198.31 218.89 207.05 225.61 207.84 234.2 199.59 235.65 194.5"/><polygon class="cls-14" points="196.73 265.02 190.62 271.13 188.06 273.69 190.34 276.49 198.69 266.47 196.73 265.02"/><polygon class="cls-14" points="188.06 273.69 186.79 271.66 182.48 264.72 177.31 273.65 180.61 280.65 188.06 273.69 188.06 273.69"/><polygon class="cls-14" points="187.06 257.33 182.48 264.72 186.79 271.66 188.06 273.69 188.06 273.69 194.14 268.14 187.06 257.33"/><polygon class="cls-15" points="197.03 264.72 189.08 254.07 187.06 257.33 187.06 257.33 194.14 268.14 196.73 265.02 197.03 264.72"/><polygon class="cls-11" points="301.6 168.76 287.95 173.53 287.06 178.98 287.14 187.09 294.96 181.87 301.6 168.76"/><polygon class="cls-16" points="289.37 163.22 289.08 163.27 289.07 163.41 289.23 173.45 301.6 168.76 289.37 163.22"/><polygon class="cls-11" points="235.43 186.81 218.77 191.93 223.64 198.31 234.2 199.59 235.65 194.5 235.43 186.81"/><polygon class="cls-16" points="237.31 175.64 234.04 176.51 232.12 173.68 218.77 191.93 235.48 188.67 237.31 175.64"/><polygon class="cls-17" points="351.1 136.99 352.5 135.84 350.24 136.37 341.88 151.7 345.08 149.47 351.1 136.99"/><polygon class="cls-18" points="352.5 135.84 351.1 136.99 345.08 149.47 341.88 151.7 342.12 158.34 336.27 162.87 336.96 165.38 333.01 173.63 331.04 173.2 331.04 173.2 330.26 174.74 326.23 183.87 331.35 183.81 338.92 165.14 345.23 159.36 345.5 150.96 352.5 135.84"/><polygon class="cls-17" points="333.01 173.63 336.96 165.38 336.27 162.87 331.04 173.2 331.04 173.2 333.01 173.63"/><polygon class="cls-12" points="289.1 163.01 289.08 163.27 289.37 163.22 289.1 163.01"/><polygon class="cls-11" points="289.06 163.28 289.07 163.41 289.08 163.27 289.06 163.28"/><polygon class="cls-15" points="334.81 183.78 326.83 197.56 320.22 187.81 323.37 183.33 334.81 183.78"/><polygon class="cls-14" points="337.89 167.58 342.94 168.41 343.02 174.54 336.67 183.86 331.41 183.66 337.89 167.58"/><polygon class="cls-19" points="323.37 183.33 328.67 172.67 338.15 174.78 336.6 178.55 331.21 177.45 328.93 183.55 323.37 183.33"/><polygon class="cls-20" points="331.64 203.13 323.37 183.33 320.1 184.46 294.9 215.32 331.13 203.61 331.64 203.13"/><polygon class="cls-21" points="289.99 195.07 294.9 215.32 320.1 184.46 289.99 195.07"/><polygon class="cls-22" points="284.96 220.56 312.33 221.16 327.72 202.89 294.9 215.32 289.99 195.07 274.98 192.7 284.96 220.56"/><polygon class="cls-18" points="323.37 183.33 320.1 184.46 321.17 187.22 327.72 202.89 311.58 217.95 308.48 221.07 312.33 221.16 331.13 203.61 331.64 203.13 323.37 183.33"/><polygon class="cls-20" points="199.7 299.53 223.04 316.75 246.42 235.07 234.99 238.7 199.7 299.53"/><polygon class="cls-20" points="234.91 217.71 233.7 216.96 223.15 210.21 231.23 229.67 238.44 222.79 246.42 235.07 256.87 231.14 234.91 217.71"/><polygon class="cls-23" points="231.23 229.67 234.99 238.7 246.42 235.07 238.44 222.79 231.23 229.67"/><polygon class="cls-24" points="237.04 319.04 250.28 312.17 251.96 308.53 237.41 316.77 237.04 319.04"/><polygon class="cls-18" points="238.53 309.93 237.41 316.77 251.96 308.53 254.26 303.54 238.53 309.93"/><polygon class="cls-20" points="278.15 223.13 284.96 220.56 282.78 214.42 278.15 223.13"/><polygon class="cls-17" points="256.87 231.14 257.63 231.6 256.87 231.14 256.87 231.14"/><polygon class="cls-17" points="256.87 231.14 256.87 231.14 234.91 217.71 234.91 217.71 256.87 231.14"/><polygon class="cls-18" points="280.46 214.68 275.8 223.44 275.38 224.17 278.15 223.13 282.78 214.42 281.95 212.06 280.46 214.68"/><polygon class="cls-18" points="275.38 224.17 265.78 240.64 259.47 230.16 237.55 216.64 235.13 215.15 226.46 209.6 224.82 208.6 223.15 210.21 233.7 216.96 234.91 217.71 256.87 231.14 257.63 231.6 265.57 244.8 277.68 224.02 278.15 223.13 275.38 224.17"/><polygon class="cls-17" points="257.83 201.87 257.88 208.4 237.55 216.64 259.37 229.98 259.47 230.16 275.38 224.17 275.8 223.44 280.46 214.68 281.95 212.06 274.42 190.79 257.83 201.87"/><polygon class="cls-25" points="235.13 215.15 237.55 216.64 257.88 208.4 234.2 199.59 224.82 208.6 226.46 209.6 235.13 215.15"/><polygon class="cls-18" points="274.44 190.85 274.42 190.79 274.31 190.87 274.44 190.85"/><polygon class="cls-18" points="280.46 214.68 281.95 212.06 281.06 209.55 277.63 213.69 270.87 225.87 260.66 229.71 260.3 229.1 225.61 207.84 224.82 208.6 223.15 210.21 233.7 216.96 234.91 217.71 256.87 231.14 257.63 231.6 265.57 244.8 277.68 224.02 278.15 223.13 275.38 224.17 275.8 223.44 280.46 214.68"/><polygon class="cls-18" points="257.83 201.87 235.65 194.5 234.2 199.59 257.88 208.4 257.83 201.87"/><polygon class="cls-19" points="289.42 188.14 288.83 141.47 276.23 134.72 267.65 142.88 248.64 139.84 248.11 140.62 252.26 147.74 253.47 199.55 270.9 193.99 289.42 188.14"/><polygon class="cls-26" points="276.23 134.72 288.83 141.47 282.32 131.32 275.84 129.83 276.23 134.72"/><polygon class="cls-16" points="275.84 129.83 262.53 126.77 267.68 142.85 276.23 134.72 275.84 129.83"/><polygon class="cls-12" points="246.51 138.51 248.44 140.14 248.64 139.84 267.65 142.88 267.68 142.85 262.53 126.77 246.51 138.51"/><polygon class="cls-11" points="230.74 150.21 234.1 170.66 236.4 169.76 240.6 172.06 244.62 155.52 239.79 152.84 248.64 139.84 247.57 137.73 230.74 150.21"/><polygon class="cls-22" points="264.29 150.49 264.64 152.39 256.61 157.95 256.05 155.73 264.29 150.49"/><polygon class="cls-22" points="275.1 148.07 275.51 150.34 282.32 151.02 282.5 149.94 275.1 148.07"/><polygon class="cls-14" points="256.61 157.95 271.46 169.65 271.07 159.5 267.63 153.71 273.39 152.39 276.59 158.3 276.97 164.15 282.32 151.02 275.51 150.34 264.64 152.39 256.61 157.95"/><polygon class="cls-27" points="272.88 150.81 276.55 157.75 277.55 173.01 271.65 174.6 271.07 159.5 266.61 152.01 272.88 150.81"/><path d="M281.51,158.07c.08,1.51-.56,3-1.44,3.3s-1.67-.68-1.76-2.2.56-3,1.44-3.3S281.42,156.55,281.51,158.07Z"/><path d="M264.78,162.66c0,1.62-.85,3.24-2,3.61s-2-.64-2.06-2.26.85-3.23,2-3.61S264.75,161,264.78,162.66Z"/><polygon class="cls-14" points="252.26 147.74 248.64 139.84 239.79 152.84 244.62 155.52 240.6 172.06 236.4 169.76 234.1 170.66 229.31 172.58 231.31 182.86 235.29 181.68 240.47 180.06 235.43 186.81 235.65 194.5 250.92 199.58 253.48 199.12 252.26 147.74"/><polygon class="cls-15" points="235.29 181.68 235.48 188.67 240.47 180.06 235.29 181.68"/><polygon class="cls-15" points="258.93 202.04 258.97 197.98 253.48 199.12 250.92 199.58 258.64 202.14 258.93 202.04"/><polygon class="cls-11" points="277.55 173.01 271.65 174.6 275.31 176.16 277.55 173.01"/><polygon class="cls-15" points="232.12 173.68 238.07 175.93 237.07 171.89 232.12 173.68"/><polygon class="cls-21" points="223.15 210.21 195.61 240.7 223.74 232.53 234.91 217.71 223.15 210.21"/><polygon class="cls-18" points="194.14 268.14 208.97 262.67 212.33 258.24 196.4 263.81 189.46 247.51 189.46 247.51 186.48 250.81 194.14 268.14"/><polygon class="cls-20" points="195.61 240.7 189.46 247.51 189.46 247.51 196.4 263.81 201.09 262.17 223.6 232.57 195.61 240.7"/><polygon class="cls-22" points="234.91 217.71 201.09 262.17 212.33 258.24 240.43 221.08 234.91 217.71"/><polygon class="cls-25" points="256.8 317.06 250.28 312.17 243.51 315.68 243.14 317.95 256.8 317.06"/><polygon class="cls-20" points="224.09 313.1 223.04 316.75 223.13 316.81 267.48 302.55 284.96 220.56 224.09 313.1 224.09 313.1"/><polygon class="cls-21" points="277.68 224.02 265.57 244.8 257.63 231.6 256.87 231.14 246.42 235.07 224.09 313.1 224.09 313.1 284.96 220.56 278.15 223.13 277.68 224.02"/><polygon class="cls-18" points="264.73 300.32 224.09 313.1 203.89 298.19 201.54 296.36 199.7 299.53 223.04 316.75 223.13 316.81 267.48 302.55 268.24 299 264.73 300.32"/><polygon class="cls-12" points="271.65 174.6 257.69 186.06 258.25 227.84 270.78 239.26 270.77 242.09 268.2 246.06 274.53 252.21 275.31 176.16 271.65 174.6"/><polygon class="cls-26" points="278.04 237.61 287.47 220.63 287.06 178.98 277.55 173.01 275.31 176.16 274.53 252.21 279.92 244.18 277.47 241.04 278.04 237.61"/><polygon class="cls-23" points="278.36 240.99 269.93 242.75 269.95 239.19 278.38 237.43 278.36 240.99"/><polygon class="cls-22" points="279.77 180.4 267.93 184.01 268.21 182.26 280.06 178.65 279.77 180.4"/><polygon class="cls-17" points="258.33 316.96 250.28 312.17 243.51 315.68 241.5 316.72 237.04 319.04 241.15 318.9 258.44 318.3 258.33 316.96"/><polygon class="cls-17" points="205 319.98 196.98 319.63 196.32 323.62 206.47 322.96 205 319.98"/><polygon class="cls-24" points="196.98 319.63 205 319.98 213.44 311.24 205.78 307.01 196.98 319.63"/><polygon class="cls-18" points="205.41 303.74 193.81 320.97 196.32 323.62 196.98 319.63 205.78 307.01 213.44 311.24 214.33 310.32 205.41 303.74"/><path class="cls-28" d="M167,73.76l-14.35,1-3,5.73-7.51.52,18.1-33.3,8.57-.6,6.7,31.57-7.46.53Zm-11.47-5.11,10.64-.74L163.43,53.4Z"/><path class="cls-28" d="M184.12,46l12.67-.88c10.07-.7,15.92,5.28,14.21,15.05S201.18,76.9,191.11,77.6l-12.66.89Zm8.06,25.48A13,13,0,0,0,204,60.7c1-5.74-1.68-9.92-8.28-9.46l-5.83.41-3.55,20.28Z"/><path class="cls-28" d="M214.32,43.94l7.8-.55,4.54,24.33,13.23-25.57,7.81-.54-18.06,33.3-8.57.6Z"/><path class="cls-28" d="M265,39.87c9.73-.68,15.58,5.83,13.87,15.6a21.86,21.86,0,0,1-19.75,18c-9.68.67-15.53-5.84-13.82-15.61A21.83,21.83,0,0,1,265,39.87ZM264,46c-5.93.41-10.53,5.25-11.6,11.33s1.94,10.38,7.87,10S270.81,62,271.87,56,269.88,45.58,264,46Z"/><path class="cls-28" d="M282.17,55.25a22,22,0,0,1,19.8-18c7.32-.51,10.73,3.09,12.29,7l-6.39,3.33c-.89-2.53-3.41-4.42-7-4.17-5.58.39-10.61,5.21-11.69,11.33s2.38,10.36,8,10a11.67,11.67,0,0,0,8.63-5.26l5.38,2.46c-3,4.19-7.76,8.42-15.08,8.93C286.7,71.5,280.43,65.22,282.17,55.25Z"/><path class="cls-28" d="M335.07,62l-14.35,1-3,5.73-7.51.53L328.31,36l8.57-.6L343.58,67l-7.46.52Zm-11.47-5.1,10.64-.75-2.69-14.51Z"/><path class="cls-28" d="M355.52,40.08l-9.4.66,1.07-6.08,25.62-1.79L371.75,39l-9.35.65L357.79,66l-6.89.49Z"/><path class="cls-28" d="M377.19,32.56,399.92,31l-1,5.93L383,38l-1.23,7L397.31,44l-1,5.93L380.72,51l-1.32,7.54,15.89-1.11-1.05,6L371.51,65Z"/></g></svg>