<svg width="132" height="32" xmlns="http://www.w3.org/2000/svg">
    <g fill-rule="nonzero" fill="none">
        <path d="M49.001 7.156h-7.252c-.496 0-.918.361-.996.85L37.82 26.604a.604.604 0 0 0 .598.697h3.463c.496 0 .918-.36.995-.851l.791-5.016c.077-.49.5-.851.995-.851h2.296c4.777 0 7.534-2.312 8.254-6.893.324-2.004.013-3.578-.925-4.681-1.03-1.211-2.859-1.852-5.286-1.852zm.837 6.792c-.397 2.602-2.385 2.602-4.308 2.602h-1.094l.768-4.86c.045-.293.3-.51.597-.51h.501c1.31 0 2.545 0 3.184.747.38.445.497 1.107.352 2.021zm20.84-.084h-3.472a.605.605 0 0 0-.597.51l-.154.972-.243-.352c-.752-1.091-2.428-1.456-4.102-1.456-3.837 0-7.115 2.906-7.753 6.983-.332 2.034.14 3.979 1.294 5.335 1.058 1.247 2.572 1.767 4.374 1.767 3.092 0 4.806-1.988 4.806-1.988l-.154.965c-.059.369.225.7.595.7h3.129c.497 0 .917-.361.995-.852l1.877-11.886a.602.602 0 0 0-.595-.698zm-4.84 6.76c-.335 1.983-1.91 3.315-3.918 3.315-1.009 0-1.815-.323-2.332-.936-.513-.609-.709-1.475-.545-2.44.313-1.967 1.914-3.343 3.891-3.343.986 0 1.788.328 2.316.946.53.625.74 1.497.588 2.457zm23.335-6.76h-3.49c-.332 0-.645.166-.834.443l-4.813 7.09-2.04-6.814a1.01 1.01 0 0 0-.967-.719h-3.43a.605.605 0 0 0-.573.8l3.844 11.28-3.614 5.102a.604.604 0 0 0 .493.954h3.486c.33 0 .64-.161.828-.433L89.67 14.813a.604.604 0 0 0-.497-.949z" fill="#253B80"/>
        <path d="M100.727 7.156h-7.253c-.495 0-.917.361-.994.85l-2.933 18.597a.603.603 0 0 0 .595.697h3.722a.705.705 0 0 0 .696-.596l.832-5.27c.077-.492.5-.852.995-.852h2.295c4.778 0 7.534-2.312 8.255-6.893.325-2.004.012-3.578-.926-4.681-1.03-1.211-2.857-1.852-5.284-1.852zm.837 6.792c-.396 2.602-2.384 2.602-4.307 2.602h-1.094l.77-4.86a.602.602 0 0 1 .595-.51h.502c1.308 0 2.544 0 3.183.747.38.445.496 1.107.35 2.021zm20.84-.084h-3.471a.601.601 0 0 0-.596.51l-.154.972-.244-.352c-.752-1.091-2.427-1.456-4.1-1.456-3.838 0-7.114 2.906-7.753 6.983-.33 2.034.14 3.979 1.293 5.335 1.06 1.247 2.572 1.767 4.374 1.767 3.092 0 4.807-1.988 4.807-1.988l-.155.965c-.059.369.226.7.598.7h3.127c.495 0 .917-.361.995-.852l1.877-11.886a.606.606 0 0 0-.599-.698zm-4.841 6.76c-.333 1.983-1.91 3.315-3.918 3.315-1.007 0-1.815-.323-2.332-.936-.513-.609-.706-1.475-.545-2.44.315-1.967 1.914-3.343 3.891-3.343.987 0 1.788.328 2.316.946.532.625.741 1.497.588 2.457zm8.934-12.957-2.976 18.936a.603.603 0 0 0 .596.697h2.992c.498 0 .92-.36.996-.851l2.935-18.595a.604.604 0 0 0-.596-.699h-3.35a.606.606 0 0 0-.597.512z" fill="#179BD7"/>
        <path d="m7.705 30.914.554-3.522-1.235-.029H1.125l4.1-25.993a.335.335 0 0 1 .333-.284h9.946c3.302 0 5.58.687 6.77 2.043.558.636.913 1.301 1.085 2.033.18.768.183 1.685.007 2.804l-.012.081v.717l.557.316c.47.25.843.534 1.13.861.477.544.785 1.235.916 2.055.135.843.09 1.846-.13 2.982-.255 1.306-.666 2.444-1.222 3.375a6.942 6.942 0 0 1-1.935 2.12c-.738.525-1.615.922-2.607 1.177-.96.25-2.056.376-3.257.376h-.774c-.554 0-1.091.2-1.513.557a2.343 2.343 0 0 0-.79 1.408l-.058.317-.98 6.209-.044.228c-.012.072-.032.108-.061.132a.164.164 0 0 1-.102.037h-4.78z" fill="#253B80"/>
        <path d="M24.44 8.13c-.03.19-.064.384-.102.583-1.312 6.735-5.8 9.061-11.53 9.061H9.888c-.7 0-1.291.509-1.4 1.2L6.993 28.45l-.423 2.686a.747.747 0 0 0 .737.863h5.176c.613 0 1.133-.445 1.23-1.05l.05-.263.975-6.184.063-.34a1.245 1.245 0 0 1 1.23-1.051h.774c5.014 0 8.94-2.036 10.087-7.927.48-2.462.231-4.517-1.037-5.962A4.949 4.949 0 0 0 24.44 8.13z" fill="#179BD7"/>
        <path d="M23.067 7.583a10.346 10.346 0 0 0-1.275-.283 16.207 16.207 0 0 0-2.573-.188h-7.796a1.243 1.243 0 0 0-1.229 1.052L8.536 18.668l-.048.306c.11-.691.7-1.2 1.401-1.2h2.918c5.732 0 10.219-2.328 11.53-9.06.04-.2.073-.394.103-.584a6.992 6.992 0 0 0-1.079-.455 9.59 9.59 0 0 0-.294-.092z" fill="#222D65"/>
        <path d="M10.194 8.164a1.24 1.24 0 0 1 1.23-1.051h7.795c.924 0 1.786.06 2.573.188a10.346 10.346 0 0 1 1.57.374c.387.128.747.28 1.079.455.39-2.489-.004-4.183-1.35-5.718C21.609.723 18.932 0 15.506 0H5.558c-.7 0-1.296.509-1.405 1.201L.011 27.461c-.082.52.319.989.843.989h6.14l1.542-9.782 1.658-10.504z" fill="#253B80"/>
    </g>
</svg>
